<svg xmlns="http://www.w3.org/2000/svg" width="15" height="14" fill="none" preserveAspectRatio="xMidYMid meet" viewBox="0 0 15 14">
   <path fill="black" d="M.509 6.7c.345-.142.75-.305 1.115-.457.609-.243 1.298 0 1.612.578 1.004 1.866 1.917 3.488 2.799 4.624.02.03.07.02.08-.01 1.43-2.484 3.276-6.206 5.162-10.14.456-.943 1.53-1.42 2.565-1.267l.213.03c.284.04.436.345.314.599 0 0-3.457 7.401-6.235 11.68C7.444 13.402 6.288 14 5.325 14c-.68 0-1.207.03-2.018-.963-1.156-1.42-2.16-3.215-3.214-5.212C-.13 7.399.063 6.882.51 6.7z"></path>
</svg>