<svg xmlns="http://www.w3.org/2000/svg" width="1280" height="808" fill="none">
   <path fill="url(#prefix__paint0_linear)" d="M-2199.77 171.716c166.38-52.619 340.2-116.574 547.45-141.243 160.22-19.07 330.75-27.841 497.37-29.626 185.457-1.987 381.574-2.87 556.371 26.043 86.238 14.266 168.9 34.674 252.459 51.399 84.877 16.989 164.453 34.709 257.26 43.268 89.536 8.259 181.212 12.566 273.04 12.953 149.351.63 286.665-4.631 432.198-18.464 150.316-14.288 294.382-26.355 448.662-31.143 83.64-2.595 167.33-4.488 251.09-6.338 123.98-2.74 247.33-9.532 371.48-10.749 111.57-1.093 223.78-.217 332.73 9.508 30.1 2.688-12.75 51.02-16.12 57.738-26.51 52.835-49.97 105.909-76.5 158.742-24.39 48.585-53.69 96.819-63.8 146.341l-.39 1.946c-8.34 40.781-16.6 81.224 13.08 120.97 10.55 14.123 28.3 28.239 29.5 43.268.85 10.544 4.53 20.379 12.35 30.591 9.49 12.388 10.48 25.531 15.78 38.308.95 2.297 18.08 36.992 17.15 37.205-58.81 13.5-138.58 11.217-203.06 16.398-68.35 5.492-134.59-75.023-201.01-66.712C1425.37 677.378 1362 781.5 1255 768.5c-31 .331-34-10-76.5-5.669-25.61 2.61-59.72-11.487-90-9.331-131.373 9.353-290.409 45.151-402.833 47.675-217.743 4.889-260.393-4.186-488.167-33.869-22.748-2.964-90 3.194-137.233 7C34.96 776.345 4.5 772.293-16 772.293c-140-49.293-97.22-45.246-375.5-4.987-387.908 56.119-1127.58 43.007-1463.23 25.237-83.29-4.409-171.28-7.389-258.12-8.858l-.02-.001c-17.25-.352-35.79-70.594-52.9-70.884l-.04-.001c-24.24-.243-48.3-.366-72.04-.366-37.85 0-1.75-40.867 1.72-49.469 17.58-43.554 44.91-86.573 56.6-130.494 13.28-49.891 10.23-100.643 13.72-150.751 3.53-50.845 18-101.43 21.61-152.128.95-13.421 6.17-26.465 6.17-39.962 0-21.669-36.43 2.424-61.74-17.913z"/>
   <defs>
      <linearGradient id="prefix__paint0_linear" x1="-112" x2="-112" y1="557.5" y2="807.824" gradientUnits="userSpaceOnUse">
         <stop stop-color="#F1FCFE"/>
         <stop offset=".542" stop-color="#F3FCFE" stop-opacity=".83"/>
         <stop offset="1" stop-color="#fff" stop-opacity="0"/>
      </linearGradient>
   </defs>
</svg>