<svg fill="none" height="846" width="1278"
   xmlns="http://www.w3.org/2000/svg">
   <clipPath id="a">
      <path d="M-2 0h1282v846H-2z"/>
   </clipPath>
   <g clip-path="url(#a)" fill="#fdf8f2">
      <path d="M0 439h1280v407H0z"/>
      <path d="M-1177.59 684.382c-154.54-21.547-284.16-77.41-408.23-123.372 18.88-17.764 46.04 3.281 46.04-15.647 0-11.788-3.89-23.182-4.6-34.905-2.69-44.283-13.48-88.469-16.11-132.88-2.6-43.769-.33-88.099-10.24-131.677-8.71-38.365-29.09-75.941-42.2-113.984-2.59-7.514-29.51-43.21-1.28-43.21 93.13 0 192.75-2.965 284.69-8.666C-1079.23 64.519-705.756-93.631-416.5-44.612-191.5-6.482-175.08 85.544 92 40.777c206.48-34.61 295.224-34.28 473.807-29.584 103.153 2.713 205.09 11.804 307.448 17.934 111.717 6.69 227.015 9.077 335.075 24.915 49.53 7.26 98.92 15.545 149.88 20.342 48.09 4.525 107.58 2.531 151.43 14.323.69.186-12.08 30.491-12.79 32.498-3.95 11.16-4.69 22.641-11.77 33.461-5.83 8.92-8.57 17.51-9.21 26.72-.9 13.128-14.13 25.457-21.99 37.794-22.14 34.717-15.98 70.043-9.76 105.664l.29 1.7c7.54 43.257 29.39 85.387 47.58 127.825 19.78 46.149 37.27 92.508 57.04 138.658 2.51 5.867 34.47 48.084 12.02 50.432-81.24 8.495-164.92 9.26-248.11 8.305-92.58-1.063-184.55-6.995-277.01-9.388-62.453-1.617-124.862-3.27-187.23-5.537-115.045-4.182-206.94 12.133-339.7 14.925-122.012 2.566-187.775 10.087-312.5 0-83.094-6.72-141.48-54.155-208.244-46.941-69.205 7.476-128.544 22.954-191.836 37.793-62.308 14.609-123.948 32.436-188.254 44.896-130.343 25.256-276.585 24.484-414.876 22.748-124.248-1.559-251.41-9.22-370.88-25.878z"/>
   </g>
</svg>